# xmcd
#
# Track frame offsets:
#	182
#	10457
#	22182
#	33410
#	49442
#	63562
#	77212
#	87722
#	100340
#	112975
#	125535
#	140420
#	154232
#	167250
#	178247
#	190022
#	201630
#	214242
#
# Disc length: 3025 seconds
#
# Revision: 0
# Processed by: cddbd v1.5.1PL2 Copyright (c) Steve Scherf et al.
# Submitted via: audiograbber 1.81.03
#
DISCID=0e0bcf12
DTITLE=RAY CHARLES - JAZZ and BLUES COLLECTION
DYEAR=1900
DGENRE=Blues
TTITLE0=Ain't That Fine
TTITLE1=If I Give You My Love
TTITLE2=She's On The Ball
TTITLE3=Let Me Hear You Call My Name
TTITLE4=Walkin' and Talkin'
TTITLE5=This Love Of Mine
TTITLE6=Th'ego Song
TTITLE7=Lonely Boy
TTITLE8=The Snow Is Falling
TTITLE9=Why Did You Go?
TTITLE10=I'm Wondering and Wondering
TTITLE11=Late In The Evening Blues
TTITLE12=Baby Won't You Please Come Home
TTITLE13=I'll Do Anything But Work
TTITLE14=Can't You See Darling?
TTITLE15=How Long Blues
TTITLE16=Blues Before Sunrise
TTITLE17=You'll Never Miss The Water
EXTD=
EXTT0=
EXTT1=
EXTT2=
EXTT3=
EXTT4=
EXTT5=
EXTT6=
EXTT7=
EXTT8=
EXTT9=
EXTT10=
EXTT11=
EXTT12=
EXTT13=
EXTT14=
EXTT15=
EXTT16=
EXTT17=
PLAYORDER=
